<mxfile host="app.diagrams.net" agent="Mozilla/5.0 (X11; Linux x86_64; rv:134.0) Gecko/20100101 Firefox/134.0" version="26.0.11">
  <diagram id="C5RBs43oDa-KdzZeNtuy" name="Page-1">
    <mxGraphModel dx="1429" dy="789" grid="1" gridSize="10" guides="1" tooltips="1" connect="1" arrows="1" fold="1" page="1" pageScale="1" pageWidth="620" pageHeight="500" background="#ffffff" math="0" shadow="0">
      <root>
        <mxCell id="WIyWlLk6GJQsqaUBKTNV-0" />
        <mxCell id="WIyWlLk6GJQsqaUBKTNV-1" parent="WIyWlLk6GJQsqaUBKTNV-0" />
        <mxCell id="nEQn-P0i9E69s7znphF9-3" value="Docker Compose" style="swimlane;whiteSpace=wrap;html=1;labelBackgroundColor=none;rounded=1;shadow=1;strokeColor=default;align=center;verticalAlign=middle;shadowOffsetX=4;shadowOffsetY=4;shadowBlur=0;shadowOpacity=100;fontFamily=Helvetica;fontSize=12;fontColor=default;fillColor=default;" vertex="1" parent="WIyWlLk6GJQsqaUBKTNV-1">
          <mxGeometry x="412" y="205" width="230" height="160" as="geometry">
            <mxRectangle width="140" height="30" as="alternateBounds" />
          </mxGeometry>
        </mxCell>
        <mxCell id="nEQn-P0i9E69s7znphF9-4" value="&lt;font style=&quot;font-size: 16px;&quot;&gt;&lt;b&gt;Azure SQL Database&lt;br&gt;&lt;/b&gt;&lt;/font&gt;" style="rounded=0;whiteSpace=wrap;html=1;labelBackgroundColor=none;shadow=1;strokeColor=#b46504;align=center;verticalAlign=middle;shadowOffsetX=4;shadowOffsetY=4;shadowBlur=0;shadowOpacity=100;fontFamily=Helvetica;fontSize=12;fillColor=#fad7ac;" vertex="1" parent="WIyWlLk6GJQsqaUBKTNV-1">
          <mxGeometry x="410" y="390" width="230" height="80" as="geometry" />
        </mxCell>
        <mxCell id="nEQn-P0i9E69s7znphF9-5" value="&lt;font style=&quot;font-size: 16px;&quot;&gt;&lt;b&gt;Azure Blob Storage&lt;br&gt;&lt;/b&gt;&lt;/font&gt;" style="rounded=1;whiteSpace=wrap;html=1;dashed=1;labelBackgroundColor=none;" vertex="1" parent="WIyWlLk6GJQsqaUBKTNV-1">
          <mxGeometry x="412" y="25" width="230" height="80" as="geometry" />
        </mxCell>
        <mxCell id="nEQn-P0i9E69s7znphF9-62" style="edgeStyle=orthogonalEdgeStyle;rounded=0;orthogonalLoop=1;jettySize=auto;html=1;exitX=0.5;exitY=0.5;exitDx=0;exitDy=0;exitPerimeter=0;entryX=0;entryY=0.5;entryDx=0;entryDy=0;fontFamily=Helvetica;fontSize=12;fontColor=default;labelBackgroundColor=none;" edge="1" parent="WIyWlLk6GJQsqaUBKTNV-1" source="nEQn-P0i9E69s7znphF9-6" target="nEQn-P0i9E69s7znphF9-9">
          <mxGeometry relative="1" as="geometry" />
        </mxCell>
        <mxCell id="nEQn-P0i9E69s7znphF9-6" value="End User" style="shape=umlActor;verticalLabelPosition=bottom;verticalAlign=top;html=1;outlineConnect=0;labelBackgroundColor=none;rounded=1;" vertex="1" parent="WIyWlLk6GJQsqaUBKTNV-1">
          <mxGeometry x="50" y="160" width="30" height="60" as="geometry" />
        </mxCell>
        <mxCell id="nEQn-P0i9E69s7znphF9-7" value="" style="group;fontStyle=1;labelBackgroundColor=none;rounded=0;glass=0;fillColor=default;shadow=1;strokeColor=default;align=center;verticalAlign=middle;shadowOffsetX=4;shadowOffsetY=4;shadowBlur=0;shadowOpacity=100;fontFamily=Helvetica;fontSize=12;fontColor=default;container=0;" vertex="1" connectable="0" parent="WIyWlLk6GJQsqaUBKTNV-1">
          <mxGeometry x="412" y="230" width="230" height="135" as="geometry" />
        </mxCell>
        <mxCell id="nEQn-P0i9E69s7znphF9-11" style="edgeStyle=orthogonalEdgeStyle;rounded=1;orthogonalLoop=1;jettySize=auto;html=1;entryX=0;entryY=0.5;entryDx=0;entryDy=0;labelBackgroundColor=none;fontColor=default;" edge="1" parent="WIyWlLk6GJQsqaUBKTNV-1" source="nEQn-P0i9E69s7znphF9-20" target="nEQn-P0i9E69s7znphF9-3">
          <mxGeometry relative="1" as="geometry" />
        </mxCell>
        <mxCell id="nEQn-P0i9E69s7znphF9-55" style="edgeStyle=orthogonalEdgeStyle;rounded=0;orthogonalLoop=1;jettySize=auto;html=1;exitX=0.5;exitY=1;exitDx=0;exitDy=0;entryX=0.5;entryY=0;entryDx=0;entryDy=0;fontFamily=Helvetica;fontSize=12;fontColor=default;labelBackgroundColor=none;" edge="1" parent="WIyWlLk6GJQsqaUBKTNV-1" source="nEQn-P0i9E69s7znphF9-9" target="nEQn-P0i9E69s7znphF9-18">
          <mxGeometry relative="1" as="geometry" />
        </mxCell>
        <mxCell id="nEQn-P0i9E69s7znphF9-56" style="edgeStyle=orthogonalEdgeStyle;rounded=0;orthogonalLoop=1;jettySize=auto;html=1;exitX=0.5;exitY=1;exitDx=0;exitDy=0;entryX=0.5;entryY=0;entryDx=0;entryDy=0;fontFamily=Helvetica;fontSize=12;fontColor=default;labelBackgroundColor=none;" edge="1" parent="WIyWlLk6GJQsqaUBKTNV-1" source="nEQn-P0i9E69s7znphF9-9" target="nEQn-P0i9E69s7znphF9-54">
          <mxGeometry relative="1" as="geometry" />
        </mxCell>
        <mxCell id="nEQn-P0i9E69s7znphF9-57" style="edgeStyle=orthogonalEdgeStyle;rounded=0;orthogonalLoop=1;jettySize=auto;html=1;exitX=0.5;exitY=1;exitDx=0;exitDy=0;entryX=0.5;entryY=0;entryDx=0;entryDy=0;fontFamily=Helvetica;fontSize=12;fontColor=default;labelBackgroundColor=none;" edge="1" parent="WIyWlLk6GJQsqaUBKTNV-1" source="nEQn-P0i9E69s7znphF9-9" target="nEQn-P0i9E69s7znphF9-53">
          <mxGeometry relative="1" as="geometry" />
        </mxCell>
        <mxCell id="nEQn-P0i9E69s7znphF9-9" value="&lt;font style=&quot;font-size: 16px;&quot;&gt;&lt;b&gt;Azure Web App Service&lt;br&gt;&lt;/b&gt;&lt;/font&gt;" style="rounded=0;whiteSpace=wrap;html=1;labelBackgroundColor=none;shadow=1;shadowOpacity=100;shadowBlur=0;shadowOffsetX=4;shadowOffsetY=4;fillColor=#b0e3e6;strokeColor=#0e8088;" vertex="1" parent="WIyWlLk6GJQsqaUBKTNV-1">
          <mxGeometry x="120" y="150" width="230" height="80" as="geometry" />
        </mxCell>
        <mxCell id="nEQn-P0i9E69s7znphF9-17" style="edgeStyle=orthogonalEdgeStyle;rounded=1;orthogonalLoop=1;jettySize=auto;html=1;exitX=0.5;exitY=0;exitDx=0;exitDy=0;entryX=0.5;entryY=1;entryDx=0;entryDy=0;dashed=1;labelBackgroundColor=none;fontColor=default;" edge="1" parent="WIyWlLk6GJQsqaUBKTNV-1" source="nEQn-P0i9E69s7znphF9-14" target="nEQn-P0i9E69s7znphF9-5">
          <mxGeometry relative="1" as="geometry" />
        </mxCell>
        <mxCell id="nEQn-P0i9E69s7znphF9-14" value="&lt;div align=&quot;center&quot;&gt;- Logs&lt;br&gt;-User Generated Content&lt;br&gt;&lt;/div&gt;" style="rounded=1;whiteSpace=wrap;html=1;align=center;dashed=1;labelBackgroundColor=none;" vertex="1" parent="WIyWlLk6GJQsqaUBKTNV-1">
          <mxGeometry x="452" y="125" width="150" height="60" as="geometry" />
        </mxCell>
        <mxCell id="nEQn-P0i9E69s7znphF9-16" style="edgeStyle=orthogonalEdgeStyle;rounded=1;orthogonalLoop=1;jettySize=auto;html=1;exitX=0.5;exitY=0;exitDx=0;exitDy=0;entryX=0.5;entryY=1;entryDx=0;entryDy=0;dashed=1;labelBackgroundColor=none;fontColor=default;" edge="1" parent="WIyWlLk6GJQsqaUBKTNV-1" source="nEQn-P0i9E69s7znphF9-3" target="nEQn-P0i9E69s7znphF9-14">
          <mxGeometry relative="1" as="geometry" />
        </mxCell>
        <mxCell id="nEQn-P0i9E69s7znphF9-60" style="edgeStyle=orthogonalEdgeStyle;rounded=0;orthogonalLoop=1;jettySize=auto;html=1;exitX=0.5;exitY=1;exitDx=0;exitDy=0;entryX=0.5;entryY=0;entryDx=0;entryDy=0;fontFamily=Helvetica;fontSize=12;fontColor=default;labelBackgroundColor=none;" edge="1" parent="WIyWlLk6GJQsqaUBKTNV-1" source="nEQn-P0i9E69s7znphF9-18" target="nEQn-P0i9E69s7znphF9-20">
          <mxGeometry relative="1" as="geometry" />
        </mxCell>
        <mxCell id="nEQn-P0i9E69s7znphF9-18" value="Load Balancing" style="rounded=1;whiteSpace=wrap;html=1;fontStyle=0;labelBackgroundColor=none;shadow=1;strokeColor=default;align=center;verticalAlign=middle;shadowOffsetX=4;shadowOffsetY=4;shadowBlur=0;shadowOpacity=100;fontFamily=Helvetica;fontSize=12;fontColor=default;fillColor=default;" vertex="1" parent="WIyWlLk6GJQsqaUBKTNV-1">
          <mxGeometry x="200" y="265" width="70" height="60" as="geometry" />
        </mxCell>
        <mxCell id="nEQn-P0i9E69s7znphF9-20" value="Auto scaling" style="rounded=1;whiteSpace=wrap;html=1;fontStyle=0;labelBackgroundColor=none;shadow=1;strokeColor=default;align=center;verticalAlign=middle;shadowOffsetX=4;shadowOffsetY=4;shadowBlur=0;shadowOpacity=100;fontFamily=Helvetica;fontSize=12;fontColor=default;fillColor=default;" vertex="1" parent="WIyWlLk6GJQsqaUBKTNV-1">
          <mxGeometry x="120" y="345" width="235" height="60" as="geometry" />
        </mxCell>
        <mxCell id="nEQn-P0i9E69s7znphF9-22" style="edgeStyle=orthogonalEdgeStyle;rounded=1;orthogonalLoop=1;jettySize=auto;html=1;exitX=0.5;exitY=1;exitDx=0;exitDy=0;entryX=0.5;entryY=0;entryDx=0;entryDy=0;labelBackgroundColor=none;fontColor=default;" edge="1" parent="WIyWlLk6GJQsqaUBKTNV-1" source="nEQn-P0i9E69s7znphF9-1" target="nEQn-P0i9E69s7znphF9-4">
          <mxGeometry relative="1" as="geometry" />
        </mxCell>
        <mxCell id="nEQn-P0i9E69s7znphF9-24" value="&lt;font style=&quot;font-size: 16px;&quot;&gt;Azure Container Registry&lt;/font&gt;" style="rounded=0;whiteSpace=wrap;html=1;fontStyle=1;labelBackgroundColor=none;shadow=1;strokeColor=#10739e;align=center;verticalAlign=middle;shadowOffsetX=4;shadowOffsetY=4;shadowBlur=0;shadowOpacity=100;fontFamily=Helvetica;fontSize=12;fillColor=#b1ddf0;" vertex="1" parent="WIyWlLk6GJQsqaUBKTNV-1">
          <mxGeometry x="680" y="245" width="192" height="80" as="geometry" />
        </mxCell>
        <mxCell id="nEQn-P0i9E69s7znphF9-50" style="edgeStyle=orthogonalEdgeStyle;rounded=1;orthogonalLoop=1;jettySize=auto;html=1;exitX=0.5;exitY=0;exitDx=0;exitDy=0;entryX=0.5;entryY=1;entryDx=0;entryDy=0;labelBackgroundColor=none;fontColor=default;" edge="1" parent="WIyWlLk6GJQsqaUBKTNV-1" source="nEQn-P0i9E69s7znphF9-27" target="nEQn-P0i9E69s7znphF9-35">
          <mxGeometry relative="1" as="geometry" />
        </mxCell>
        <mxCell id="nEQn-P0i9E69s7znphF9-27" value="&lt;font style=&quot;font-size: 16px;&quot;&gt;Github Actions&lt;/font&gt;" style="rounded=0;whiteSpace=wrap;html=1;fontStyle=1;labelBackgroundColor=none;shadow=1;strokeColor=#23445d;align=center;verticalAlign=middle;shadowOffsetX=4;shadowOffsetY=4;shadowBlur=0;shadowOpacity=100;fontFamily=Helvetica;fontSize=12;fillColor=#bac8d3;" vertex="1" parent="WIyWlLk6GJQsqaUBKTNV-1">
          <mxGeometry x="920" y="245" width="192" height="80" as="geometry" />
        </mxCell>
        <mxCell id="nEQn-P0i9E69s7znphF9-45" style="edgeStyle=orthogonalEdgeStyle;rounded=1;orthogonalLoop=1;jettySize=auto;html=1;exitX=0;exitY=0.5;exitDx=0;exitDy=0;entryX=0.5;entryY=1;entryDx=0;entryDy=0;labelBackgroundColor=none;fontColor=default;" edge="1" parent="WIyWlLk6GJQsqaUBKTNV-1" source="nEQn-P0i9E69s7znphF9-29" target="nEQn-P0i9E69s7znphF9-24">
          <mxGeometry relative="1" as="geometry" />
        </mxCell>
        <mxCell id="nEQn-P0i9E69s7znphF9-29" value="Upload Images" style="rounded=1;whiteSpace=wrap;html=1;fontStyle=0;labelBackgroundColor=none;shadow=1;strokeColor=default;align=center;verticalAlign=middle;shadowOffsetX=4;shadowOffsetY=4;shadowBlur=0;shadowOpacity=100;fontFamily=Helvetica;fontSize=12;fontColor=default;fillColor=default;" vertex="1" parent="WIyWlLk6GJQsqaUBKTNV-1">
          <mxGeometry x="800" y="335" width="72" height="60" as="geometry" />
        </mxCell>
        <mxCell id="nEQn-P0i9E69s7znphF9-49" style="edgeStyle=orthogonalEdgeStyle;rounded=1;orthogonalLoop=1;jettySize=auto;html=1;exitX=0.5;exitY=0.5;exitDx=0;exitDy=0;exitPerimeter=0;entryX=1;entryY=0.5;entryDx=0;entryDy=0;labelBackgroundColor=none;fontColor=default;" edge="1" parent="WIyWlLk6GJQsqaUBKTNV-1" source="nEQn-P0i9E69s7znphF9-31" target="nEQn-P0i9E69s7znphF9-33">
          <mxGeometry relative="1" as="geometry">
            <Array as="points">
              <mxPoint x="1130" y="285" />
              <mxPoint x="1130" y="370" />
            </Array>
          </mxGeometry>
        </mxCell>
        <mxCell id="nEQn-P0i9E69s7znphF9-31" value="Developer" style="shape=umlActor;verticalLabelPosition=bottom;verticalAlign=top;html=1;outlineConnect=0;labelBackgroundColor=none;rounded=1;" vertex="1" parent="WIyWlLk6GJQsqaUBKTNV-1">
          <mxGeometry x="1160" y="255" width="30" height="60" as="geometry" />
        </mxCell>
        <mxCell id="nEQn-P0i9E69s7znphF9-48" style="edgeStyle=orthogonalEdgeStyle;rounded=1;orthogonalLoop=1;jettySize=auto;html=1;exitX=0.5;exitY=0;exitDx=0;exitDy=0;entryX=0.5;entryY=1;entryDx=0;entryDy=0;labelBackgroundColor=none;fontColor=default;" edge="1" parent="WIyWlLk6GJQsqaUBKTNV-1" source="nEQn-P0i9E69s7znphF9-33" target="nEQn-P0i9E69s7znphF9-27">
          <mxGeometry relative="1" as="geometry" />
        </mxCell>
        <mxCell id="nEQn-P0i9E69s7znphF9-33" value="$ git push origin main" style="rounded=1;whiteSpace=wrap;html=1;fontStyle=0;labelBackgroundColor=none;shadow=1;strokeColor=default;align=center;verticalAlign=middle;shadowOffsetX=4;shadowOffsetY=4;shadowBlur=0;shadowOpacity=100;fontFamily=Helvetica;fontSize=12;fontColor=default;fillColor=default;" vertex="1" parent="WIyWlLk6GJQsqaUBKTNV-1">
          <mxGeometry x="936" y="345" width="160" height="50" as="geometry" />
        </mxCell>
        <mxCell id="nEQn-P0i9E69s7znphF9-51" style="edgeStyle=orthogonalEdgeStyle;rounded=1;orthogonalLoop=1;jettySize=auto;html=1;exitX=0.5;exitY=0;exitDx=0;exitDy=0;entryX=0.5;entryY=1;entryDx=0;entryDy=0;labelBackgroundColor=none;fontColor=default;" edge="1" parent="WIyWlLk6GJQsqaUBKTNV-1" source="nEQn-P0i9E69s7znphF9-35" target="nEQn-P0i9E69s7znphF9-36">
          <mxGeometry relative="1" as="geometry" />
        </mxCell>
        <mxCell id="nEQn-P0i9E69s7znphF9-35" value="Run Tests" style="rounded=1;whiteSpace=wrap;html=1;fontStyle=0;dashed=1;labelBackgroundColor=none;" vertex="1" parent="WIyWlLk6GJQsqaUBKTNV-1">
          <mxGeometry x="951" y="175" width="130" height="50" as="geometry" />
        </mxCell>
        <mxCell id="nEQn-P0i9E69s7znphF9-52" style="edgeStyle=orthogonalEdgeStyle;rounded=1;orthogonalLoop=1;jettySize=auto;html=1;exitX=0;exitY=0.5;exitDx=0;exitDy=0;entryX=1;entryY=0.5;entryDx=0;entryDy=0;labelBackgroundColor=none;fontColor=default;" edge="1" parent="WIyWlLk6GJQsqaUBKTNV-1" source="nEQn-P0i9E69s7znphF9-36" target="nEQn-P0i9E69s7znphF9-29">
          <mxGeometry relative="1" as="geometry">
            <Array as="points">
              <mxPoint x="900" y="130" />
              <mxPoint x="900" y="365" />
            </Array>
          </mxGeometry>
        </mxCell>
        <mxCell id="nEQn-P0i9E69s7znphF9-36" value="Build Images" style="rounded=1;whiteSpace=wrap;html=1;fontStyle=0;labelBackgroundColor=none;shadow=1;strokeColor=default;align=center;verticalAlign=middle;shadowOffsetX=4;shadowOffsetY=4;shadowBlur=0;shadowOpacity=100;fontFamily=Helvetica;fontSize=12;fontColor=default;fillColor=default;" vertex="1" parent="WIyWlLk6GJQsqaUBKTNV-1">
          <mxGeometry x="951" y="105" width="130" height="50" as="geometry" />
        </mxCell>
        <mxCell id="nEQn-P0i9E69s7znphF9-40" style="edgeStyle=orthogonalEdgeStyle;rounded=1;orthogonalLoop=1;jettySize=auto;html=1;exitX=1;exitY=0.5;exitDx=0;exitDy=0;entryX=0.5;entryY=0;entryDx=0;entryDy=0;labelBackgroundColor=none;fontColor=default;" edge="1" parent="WIyWlLk6GJQsqaUBKTNV-1" source="nEQn-P0i9E69s7znphF9-37" target="nEQn-P0i9E69s7znphF9-24">
          <mxGeometry relative="1" as="geometry" />
        </mxCell>
        <mxCell id="nEQn-P0i9E69s7znphF9-37" value="Check for new versions" style="rounded=1;whiteSpace=wrap;html=1;fontStyle=0;labelBackgroundColor=none;shadow=1;strokeColor=default;align=center;verticalAlign=middle;shadowOffsetX=4;shadowOffsetY=4;shadowBlur=0;shadowOpacity=100;fontFamily=Helvetica;fontSize=12;fontColor=default;fillColor=default;" vertex="1" parent="WIyWlLk6GJQsqaUBKTNV-1">
          <mxGeometry x="680" y="175" width="70" height="60" as="geometry" />
        </mxCell>
        <mxCell id="nEQn-P0i9E69s7znphF9-39" style="edgeStyle=orthogonalEdgeStyle;rounded=1;orthogonalLoop=1;jettySize=auto;html=1;exitX=1;exitY=0.5;exitDx=0;exitDy=0;entryX=0;entryY=0.5;entryDx=0;entryDy=0;labelBackgroundColor=none;fontColor=default;" edge="1" parent="WIyWlLk6GJQsqaUBKTNV-1" source="nEQn-P0i9E69s7znphF9-3" target="nEQn-P0i9E69s7znphF9-37">
          <mxGeometry relative="1" as="geometry" />
        </mxCell>
        <mxCell id="nEQn-P0i9E69s7znphF9-0" value="Frontend" style="rounded=0;whiteSpace=wrap;html=1;labelBackgroundColor=none;shadow=1;strokeColor=default;align=center;verticalAlign=middle;shadowOffsetX=4;shadowOffsetY=4;shadowBlur=0;shadowOpacity=100;fontFamily=Helvetica;fontSize=12;fontColor=default;fillColor=default;" vertex="1" parent="WIyWlLk6GJQsqaUBKTNV-1">
          <mxGeometry x="425" y="240" width="200" height="50" as="geometry" />
        </mxCell>
        <mxCell id="nEQn-P0i9E69s7znphF9-1" value="Backend" style="rounded=0;whiteSpace=wrap;html=1;labelBackgroundColor=none;shadow=1;strokeColor=default;align=center;verticalAlign=middle;shadowOffsetX=4;shadowOffsetY=4;shadowBlur=0;shadowOpacity=100;fontFamily=Helvetica;fontSize=12;fontColor=default;fillColor=default;" vertex="1" parent="WIyWlLk6GJQsqaUBKTNV-1">
          <mxGeometry x="425" y="299" width="200" height="50" as="geometry" />
        </mxCell>
        <mxCell id="nEQn-P0i9E69s7znphF9-53" value="Load Balancing" style="rounded=1;whiteSpace=wrap;html=1;fontStyle=0;labelBackgroundColor=none;shadow=1;strokeColor=default;align=center;verticalAlign=middle;shadowOffsetX=4;shadowOffsetY=4;shadowBlur=0;shadowOpacity=100;fontFamily=Helvetica;fontSize=12;fontColor=default;fillColor=default;" vertex="1" parent="WIyWlLk6GJQsqaUBKTNV-1">
          <mxGeometry x="120" y="265" width="70" height="60" as="geometry" />
        </mxCell>
        <mxCell id="nEQn-P0i9E69s7znphF9-54" value="Load Balancing" style="rounded=1;whiteSpace=wrap;html=1;fontStyle=0;labelBackgroundColor=none;shadow=1;strokeColor=default;align=center;verticalAlign=middle;shadowOffsetX=4;shadowOffsetY=4;shadowBlur=0;shadowOpacity=100;fontFamily=Helvetica;fontSize=12;fontColor=default;fillColor=default;" vertex="1" parent="WIyWlLk6GJQsqaUBKTNV-1">
          <mxGeometry x="280" y="265" width="70" height="60" as="geometry" />
        </mxCell>
        <mxCell id="nEQn-P0i9E69s7znphF9-59" style="edgeStyle=orthogonalEdgeStyle;rounded=0;orthogonalLoop=1;jettySize=auto;html=1;exitX=0.5;exitY=1;exitDx=0;exitDy=0;entryX=0.142;entryY=0.033;entryDx=0;entryDy=0;entryPerimeter=0;fontFamily=Helvetica;fontSize=12;fontColor=default;labelBackgroundColor=none;" edge="1" parent="WIyWlLk6GJQsqaUBKTNV-1" source="nEQn-P0i9E69s7znphF9-53" target="nEQn-P0i9E69s7znphF9-20">
          <mxGeometry relative="1" as="geometry" />
        </mxCell>
        <mxCell id="nEQn-P0i9E69s7znphF9-61" style="edgeStyle=orthogonalEdgeStyle;rounded=0;orthogonalLoop=1;jettySize=auto;html=1;exitX=0.5;exitY=1;exitDx=0;exitDy=0;entryX=0.838;entryY=0.005;entryDx=0;entryDy=0;entryPerimeter=0;fontFamily=Helvetica;fontSize=12;fontColor=default;labelBackgroundColor=none;" edge="1" parent="WIyWlLk6GJQsqaUBKTNV-1" source="nEQn-P0i9E69s7znphF9-54" target="nEQn-P0i9E69s7znphF9-20">
          <mxGeometry relative="1" as="geometry" />
        </mxCell>
      </root>
    </mxGraphModel>
  </diagram>
</mxfile>
